<svg xmlns="http://www.w3.org/2000/svg" width="153" height="126" viewBox="0 0 153 126" fill="none"><path d="M67.0761 125.417C104.121 125.417 134.152 119.271 134.152 111.69C134.152 104.108 104.121 97.9623 67.0761 97.9623C30.031 97.9623 0 104.108 0 111.69C0 119.271 30.031 125.417 67.0761 125.417Z" fill="#CDEEFF"></path><path fill-rule="evenodd" clip-rule="evenodd" d="M17.6734 46.1482L22.8406 112.627H39.2737L35.9124 108.519L34.6087 83.9354L39.2737 85.5502L41.7013 112.441H57.7609L54.3996 108.146L53.4659 90.032L80.7591 98.0402L82.037 108.519L79.2359 113.748H93.6149V99.9846C96.2488 100.171 98.9708 100.317 101.375 100.36L102.205 113.748H116.584L111.542 108.519C111.542 91.3389 116.362 73.9591 119.385 57.1658C134.555 49.7533 151.002 33.4264 152.065 21.4986C153.128 9.5709 109.6 11.3662 96.222 11.2071C95.0352 7.77705 92.4945 1.51747 90.4403 1.33073C87.6393 1.07608 88.2846 9.29787 88.0044 11.4623C83.9933 11.7273 79.9261 12.1264 77.9288 12.3484C76.5594 8.36458 72.2127 -0.516561 69.152 0.0235738C64.7205 0.805632 70.7666 15.763 69.899 25.7936C69.2677 33.0917 66.7244 44.2808 66.7244 44.2808L17.6734 46.1482Z" fill="black"></path><path d="M21.9758 34.3683C22.6512 38.3735 24.9074 43.2424 27.4009 45.8236L18.3481 54.3928C18.0052 52.7301 16.8775 50.1491 15.4028 44.4959C13.329 36.546 14.4341 32.0135 15.8386 28.7737C17.3533 25.2801 21.0801 19.0803 23.3411 20.0446C24.9011 20.71 23.3892 22.5724 22.5005 24.691C21.7388 26.507 21.0611 28.944 21.9758 34.3683Z" fill="black"></path><circle r="8.21654" transform="matrix(-1 0 0 1 83.7376 29.5051)" fill="white"></circle><circle r="8.21654" transform="matrix(-1 0 0 1 104.279 25.3966)" fill="white"></circle><circle r="2.98783" transform="matrix(-1 0 0 1 84.896 27.6373)" fill="black"></circle><circle r="2.98783" transform="matrix(-1 0 0 1 105.437 23.5293)" fill="black"></circle><path fill-rule="evenodd" clip-rule="evenodd" d="M88.7339 53.8721C78.9243 50.8169 71.3145 47.5387 66.6875 44.2892L67.0653 42.7295C71.4958 45.841 79.501 49.2585 89.2273 52.2877C98.946 55.3146 109.91 57.4527 119.49 57.1251L119.104 58.7011C109.562 59.1159 98.5511 56.9296 88.7339 53.8721Z" fill="#FFC700"></path><circle cx="108.525" cy="64.3012" r="4.97817" fill="#FFC700"></circle><rect x="108.717" y="57.5723" width="1.5611" height="2.07424" transform="rotate(10 108.717 57.5723)" fill="#FFC700"></rect></svg>